<?xml version="1.0" standalone="no"?>
<!DOCTYPE svg PUBLIC "-//W3C//DTD SVG 20010904//EN"
 "http://www.w3.org/TR/2001/REC-SVG-20010904/DTD/svg10.dtd">
<svg version="1.0" xmlns="http://www.w3.org/2000/svg"
 width="144.000000pt" height="144.000000pt" viewBox="0 0 144.000000 144.000000"
 preserveAspectRatio="xMidYMid meet">

<g transform="translate(0.000000,144.000000) scale(0.100000,-0.100000)"
fill="#000000" stroke="none">
<path d="M508 764 c-15 -33 -1 -58 36 -62 33 -4 56 13 56 42 0 51 -71 66 -92
20z m80 -2 c2 -7 -3 -12 -12 -12 -9 0 -16 7 -16 16 0 17 22 14 28 -4z"/>
<path d="M865 766 c-18 -27 -11 -52 17 -67 42 -23 90 45 56 79 -20 20 -56 14
-73 -12z m67 -1 c0 -5 -5 -11 -11 -13 -6 -2 -11 4 -11 13 0 9 5 15 11 13 6 -2
11 -8 11 -13z"/>
<path d="M652 548 c-17 -17 -16 -22 14 -57 31 -37 63 -40 106 -10 22 16 28 28
26 48 -3 25 -6 26 -68 29 -42 2 -70 -2 -78 -10z"/>
</g>
</svg>
