<?xml version="1.0" encoding="utf-8"?>
<svg xmlns="http://www.w3.org/2000/svg" xmlns:xlink="http://www.w3.org/1999/xlink" style="margin: auto; background: rgb(241, 242, 243); display: block; z-index: 1; position: relative; shape-rendering: auto;" width="1281" height="959" preserveAspectRatio="xMidYMid" viewBox="0 0 1281 959">
<g transform="translate(640.5,479.5) scale(1,1) translate(-640.5,-479.5)"><path id="path0" d="M 936.3964585140576 192.0139744562396
c 0 36.04118908342527 -8.818588818284905 10.352256438856195 -19.1708452571411 10.352256438856195
S 898.0547679997754 228.05516353966487 898.0547679997754 192.0139744562396
s 8.818588818284905 -10.352256438856195 19.1708452571411 -10.352256438856195
S 936.3964585140576 155.97278537281431 936.3964585140576 192.0139744562396
z" fill="none" stroke="none"></path>
<circle cx="0" cy="0" r="4.145743359052161" fill="#90ffb5">
  <animateMotion begin="-7.585537764519685s" dur="10s" repeatCount="indefinite">
    <mpath xlink:href="#path0"></mpath>
  </animateMotion>
</circle><path id="path1" d="M 501.7310089953871 429.28759394967915
c 0 32.356813478382364 -7.917092659604195 9.29397833953536 -17.211070999139555 9.29397833953536
S 467.308866997108 461.6444074280615 467.308866997108 429.28759394967915
s 7.917092659604195 -9.29397833953536 17.211070999139555 -9.29397833953536
S 501.7310089953871 396.93078047129677 501.7310089953871 429.28759394967915
z" fill="none" stroke="none"></path>
<circle cx="0" cy="0" r="7.639236800545761" fill="#90ffb5">
  <animateMotion begin="-8.67799019547716s" dur="10s" repeatCount="indefinite">
    <mpath xlink:href="#path1"></mpath>
  </animateMotion>
</circle><path id="path2" d="M 588.0580877714707 440.9365090363786
c 0 20.200791041977258 -4.942746744313584 5.802354873759426 -10.74510161807301 5.802354873759426
S 566.5678845353247 461.13730007835585 566.5678845353247 440.9365090363786
s 4.942746744313584 -5.802354873759426 10.74510161807301 -5.802354873759426
S 588.0580877714707 420.73571799440134 588.0580877714707 440.9365090363786
z" fill="none" stroke="none"></path>
<circle cx="0" cy="0" r="5.769498539293938" fill="#60e7f3">
  <animateMotion begin="-4.3258683775542455s" dur="10s" repeatCount="indefinite">
    <mpath xlink:href="#path2"></mpath>
  </animateMotion>
</circle><path id="path3" d="M 592.4889094661792 250.3706978682666
c 0 26.335700565438206 -6.443841627713602 7.564509736881186 -14.00835136459479 7.564509736881186
S 564.4722067369896 276.7063984337048 564.4722067369896 250.3706978682666
s 6.443841627713602 -7.564509736881186 14.00835136459479 -7.564509736881186
S 592.4889094661792 224.0349973028284 592.4889094661792 250.3706978682666
z" fill="none" stroke="none"></path>
<circle cx="0" cy="0" r="7.755760708758848" fill="#ffd391">
  <animateMotion begin="-8.80690792496397s" dur="10s" repeatCount="indefinite">
    <mpath xlink:href="#path3"></mpath>
  </animateMotion>
</circle><path id="path4" d="M 1113.9570113800728 605.9935599193951
c 0 23.052084843238568 -5.640403738239224 6.6213435188025676 -12.26174725704179 6.6213435188025676
S 1089.433516865989 629.0456447626337 1089.433516865989 605.9935599193951
s 5.640403738239224 -6.6213435188025676 12.26174725704179 -6.6213435188025676
S 1113.9570113800728 582.9414750761565 1113.9570113800728 605.9935599193951
z" fill="none" stroke="none"></path>
<circle cx="0" cy="0" r="4.127580754995736" fill="#ffd391">
  <animateMotion begin="-3.880360264356353s" dur="10s" repeatCount="indefinite">
    <mpath xlink:href="#path4"></mpath>
  </animateMotion>
</circle><path id="path5" d="M 995.323820085748 299.31082858340005
c 0 33.26153670137778 -8.138461107783924 9.553845648268085 -17.69230675605201 9.553845648268085
S 959.9392065736439 332.57236528477785 959.9392065736439 299.31082858340005
s 8.138461107783924 -9.553845648268085 17.69230675605201 -9.553845648268085
S 995.323820085748 266.04929188202226 995.323820085748 299.31082858340005
z" fill="none" stroke="none"></path>
<circle cx="0" cy="0" r="7.509976683180217" fill="#90ffb5">
  <animateMotion begin="-7.611363822860309s" dur="10s" repeatCount="indefinite">
    <mpath xlink:href="#path5"></mpath>
  </animateMotion>
</circle><path id="path6" d="M 748.1198621647716 814.8142659448092
c 0 22.322126391329824 -5.461796882984957 6.41167460176495 -11.873471484749906 6.41167460176495
S 724.3729191952718 837.136392336139 724.3729191952718 814.8142659448092
s 5.461796882984957 -6.41167460176495 11.873471484749906 -6.41167460176495
S 748.1198621647716 792.4921395534794 748.1198621647716 814.8142659448092
z" fill="none" stroke="none"></path>
<circle cx="0" cy="0" r="6.4268492477594314" fill="#90ffb5">
  <animateMotion begin="-3.2878555253878083s" dur="10s" repeatCount="indefinite">
    <mpath xlink:href="#path6"></mpath>
  </animateMotion>
</circle><path id="path7" d="M 96.82809417731414 888.1505918585102
c 0 33.08232642640261 -8.094611785183616 9.502370356519899 -17.596982141703513 9.502370356519899
S 61.63412989390712 921.2329182849128 61.63412989390712 888.1505918585102
s 8.094611785183616 -9.502370356519899 17.596982141703513 -9.502370356519899
S 96.82809417731414 855.0682654321076 96.82809417731414 888.1505918585102
z" fill="none" stroke="none"></path>
<circle cx="0" cy="0" r="6.194702657900144" fill="#90ffb5">
  <animateMotion begin="-9.829293618094365s" dur="10s" repeatCount="indefinite">
    <mpath xlink:href="#path7"></mpath>
  </animateMotion>
</circle><path id="path8" d="M 1245.8096182632585 258.52965339731026
c 0 24.39738057471841 -5.969571842750248 7.007758250185075 -12.977330092935324 7.007758250185075
S 1219.854958077388 282.92703397202865 1219.854958077388 258.52965339731026
s 5.969571842750248 -7.007758250185075 12.977330092935324 -7.007758250185075
S 1245.8096182632585 234.13227282259186 1245.8096182632585 258.52965339731026
z" fill="none" stroke="none"></path>
<circle cx="0" cy="0" r="5.915740976827851" fill="#60e7f3">
  <animateMotion begin="-2.1565801093222725s" dur="10s" repeatCount="indefinite">
    <mpath xlink:href="#path8"></mpath>
  </animateMotion>
</circle><path id="path9" d="M 650.8316838759093 306.6933294819299
c 0 32.981183885956085 -8.069864142308404 9.473318775753345 -17.54318291806175 9.473318775753345
S 615.7453180397857 339.674513367886 615.7453180397857 306.6933294819299
s 8.069864142308404 -9.473318775753345 17.54318291806175 -9.473318775753345
S 650.8316838759093 273.71214559597377 650.8316838759093 306.6933294819299
z" fill="none" stroke="none"></path>
<circle cx="0" cy="0" r="6.857741835040653" fill="#ff727d">
  <animateMotion begin="-5.166467036953621s" dur="10s" repeatCount="indefinite">
    <mpath xlink:href="#path9"></mpath>
  </animateMotion>
</circle><path id="path10" d="M 181.83472872303665 68.3029953211607
c 0 33.31150792020865 -8.150688108136157 9.568199083464187 -17.718887191600345 9.568199083464187
S 146.39695433983596 101.61450324136933 146.39695433983596 68.3029953211607
s 8.150688108136157 -9.568199083464187 17.718887191600345 -9.568199083464187
S 181.83472872303665 34.991487400952046 181.83472872303665 68.3029953211607
z" fill="none" stroke="none"></path>
<circle cx="0" cy="0" r="4.010422680312965" fill="#ff727d">
  <animateMotion begin="-1.7760278100342308s" dur="10s" repeatCount="indefinite">
    <mpath xlink:href="#path10"></mpath>
  </animateMotion>
</circle><path id="path11" d="M 985.3638672447064 339.37039378700155
c 0 27.217384586521646 -6.659572824361679 7.817759402511538 -14.477332226873216 7.817759402511538
S 956.4092027909599 366.5877783735232 956.4092027909599 339.37039378700155
s 6.659572824361679 -7.817759402511538 14.477332226873216 -7.817759402511538
S 985.3638672447064 312.1530092004799 985.3638672447064 339.37039378700155
z" fill="none" stroke="none"></path>
<circle cx="0" cy="0" r="7.896410089576149" fill="#90ffb5">
  <animateMotion begin="-6.765059484189551s" dur="10s" repeatCount="indefinite">
    <mpath xlink:href="#path11"></mpath>
  </animateMotion>
</circle><path id="path12" d="M 80.06847737426284 450.9524358247501
c 0 22.447734142832786 -5.492530694522915 6.447753424005162 -11.940284118528076 6.447753424005162
S 56.187909137206695 473.4001699675829 56.187909137206695 450.9524358247501
s 5.492530694522915 -6.447753424005162 11.940284118528076 -6.447753424005162
S 80.06847737426284 428.50470168191737 80.06847737426284 450.9524358247501
z" fill="none" stroke="none"></path>
<circle cx="0" cy="0" r="7.803164542035792" fill="#60e7f3">
  <animateMotion begin="-5.598372198398192s" dur="10s" repeatCount="indefinite">
    <mpath xlink:href="#path12"></mpath>
  </animateMotion>
</circle><path id="path13" d="M 959.3590226288319 464.1082098590175
c 0 20.78092726394966 -5.084694968838746 5.968989746028094 -11.05368471486684 5.968989746028094
S 937.2516531990983 484.88913712296716 937.2516531990983 464.1082098590175
s 5.084694968838746 -5.968989746028094 11.05368471486684 -5.968989746028094
S 959.3590226288319 443.32728259506786 959.3590226288319 464.1082098590175
z" fill="none" stroke="none"></path>
<circle cx="0" cy="0" r="5.598719896194059" fill="#ffd391">
  <animateMotion begin="-5.224286617668303s" dur="10s" repeatCount="indefinite">
    <mpath xlink:href="#path13"></mpath>
  </animateMotion>
</circle><path id="path14" d="M 1120.8487090230497 139.43117107520095
c 0 28.5826352266314 -6.9936235128991715 8.209905862968593 -15.203529375867767 8.209905862968593
S 1090.4416502713143 168.01380630183235 1090.4416502713143 139.43117107520095
s 6.9936235128991715 -8.209905862968593 15.203529375867767 -8.209905862968593
S 1120.8487090230497 110.84853584856955 1120.8487090230497 139.43117107520095
z" fill="none" stroke="none"></path>
<circle cx="0" cy="0" r="4.229766500194055" fill="#90ffb5">
  <animateMotion begin="-9.383531854492063s" dur="10s" repeatCount="indefinite">
    <mpath xlink:href="#path14"></mpath>
  </animateMotion>
</circle><path id="path15" d="M 1060.1076870544834 26.76943742129474
c 0 35.356954979646275 -8.651169835445364 10.155721111174994 -18.806890946620356 10.155721111174994
S 1022.4939051612428 62.126392400941015 1022.4939051612428 26.76943742129474
s 8.651169835445364 -10.155721111174994 18.806890946620356 -10.155721111174994
S 1060.1076870544834 -8.587517558351536 1060.1076870544834 26.76943742129474
z" fill="none" stroke="none"></path>
<circle cx="0" cy="0" r="7.796716605099861" fill="#ffd391">
  <animateMotion begin="-2.8323037768488835s" dur="10s" repeatCount="indefinite">
    <mpath xlink:href="#path15"></mpath>
  </animateMotion>
</circle><path id="path16" d="M 1258.30441901618 929.765276854775
c 0 22.189594871252012 -5.429368957859534 6.37360703748728 -11.802975995346813 6.37360703748728
S 1234.6984670254865 951.954871726027 1234.6984670254865 929.765276854775
s 5.429368957859534 -6.37360703748728 11.802975995346813 -6.37360703748728
S 1258.30441901618 907.575681983523 1258.30441901618 929.765276854775
z" fill="none" stroke="none"></path>
<circle cx="0" cy="0" r="7.423191559197032" fill="#60e7f3">
  <animateMotion begin="-1.139650483315131s" dur="10s" repeatCount="indefinite">
    <mpath xlink:href="#path16"></mpath>
  </animateMotion>
</circle><path id="path17" d="M 35.022627305614165 778.7490011757902
c 0 26.976359073439536 -6.600598496692651 7.748528670030505 -14.349127166723157 7.748528670030505
S 6.324372972167854 805.7253602492298 6.324372972167854 778.7490011757902
s 6.600598496692651 -7.748528670030505 14.349127166723157 -7.748528670030505
S 35.022627305614165 751.7726421023507 35.022627305614165 778.7490011757902
z" fill="none" stroke="none"></path>
<circle cx="0" cy="0" r="6.506024061762415" fill="#ffd391">
  <animateMotion begin="-4.217133195241136s" dur="10s" repeatCount="indefinite">
    <mpath xlink:href="#path17"></mpath>
  </animateMotion>
</circle><path id="path18" d="M 44.555756189209426 666.5919340998221
c 0 24.30592149872132 -5.947193558197769 6.981488090058252 -12.928681648256022 6.981488090058252
S 18.698392892697385 690.8978555985434 18.698392892697385 666.5919340998221
s 5.947193558197769 -6.981488090058252 12.928681648256022 -6.981488090058252
S 44.555756189209426 642.2860126011008 44.555756189209426 666.5919340998221
z" fill="none" stroke="none"></path>
<circle cx="0" cy="0" r="5.189034664422704" fill="#fffbd0">
  <animateMotion begin="-8.772341421517542s" dur="10s" repeatCount="indefinite">
    <mpath xlink:href="#path18"></mpath>
  </animateMotion>
</circle><path id="path19" d="M 350.9204227549787 137.99441395995404
c 0 20.329894982355274 -4.9743360063209705 5.839437920463749 -10.81377392678472 5.839437920463749
S 329.2928749014092 158.32430894230933 329.2928749014092 137.99441395995404
s 4.9743360063209705 -5.839437920463749 10.81377392678472 -5.839437920463749
S 350.9204227549787 117.66451897759877 350.9204227549787 137.99441395995404
z" fill="none" stroke="none"></path>
<circle cx="0" cy="0" r="6.724403120964445" fill="#60e7f3">
  <animateMotion begin="-7.915262777819825s" dur="10s" repeatCount="indefinite">
    <mpath xlink:href="#path19"></mpath>
  </animateMotion>
</circle><path id="path20" d="M 1212.0909767889611 192.45239403173528
c 0 32.42545675236559 -7.933888354302217 9.313695024615647 -17.247583378917867 9.313695024615647
S 1177.5958100311254 224.87785078410087 1177.5958100311254 192.45239403173528
s 7.933888354302217 -9.313695024615647 17.247583378917867 -9.313695024615647
S 1212.0909767889611 160.0269372793697 1212.0909767889611 192.45239403173528
z" fill="none" stroke="none"></path>
<circle cx="0" cy="0" r="5.576105897140065" fill="#60e7f3">
  <animateMotion begin="-8.764461567172424s" dur="10s" repeatCount="indefinite">
    <mpath xlink:href="#path20"></mpath>
  </animateMotion>
</circle><path id="path21" d="M 419.0855349670787 346.55491301904
c 0 21.354336536528123 -5.224997237661135 6.13369240942829 -11.358689647089426 6.13369240942829
S 396.36815567289983 367.9092495555681 396.36815567289983 346.55491301904
s 5.224997237661135 -6.13369240942829 11.358689647089426 -6.13369240942829
S 419.0855349670787 325.20057648251185 419.0855349670787 346.55491301904
z" fill="none" stroke="none"></path>
<circle cx="0" cy="0" r="4.705317188307618" fill="#60e7f3">
  <animateMotion begin="-5.021830264103091s" dur="10s" repeatCount="indefinite">
    <mpath xlink:href="#path21"></mpath>
  </animateMotion>
</circle><path id="path22" d="M 1160.555260833897 121.38604968723209
c 0 35.95185050295499 -8.796729378382603 10.326595357231753 -19.123324735614354 10.326595357231753
S 1122.308611362668 157.33790019018707 1122.308611362668 121.38604968723209
s 8.796729378382603 -10.326595357231753 19.123324735614354 -10.326595357231753
S 1160.555260833897 85.4341991842771 1160.555260833897 121.38604968723209
z" fill="none" stroke="none"></path>
<circle cx="0" cy="0" r="5.608303363628648" fill="#60e7f3">
  <animateMotion begin="-2.7514836089507955s" dur="10s" repeatCount="indefinite">
    <mpath xlink:href="#path22"></mpath>
  </animateMotion>
</circle><path id="path23" d="M 800.3113448348741 579.6781997891384
c 0 32.84794969351404 -8.03726428671088 9.435049380051904 -17.472313666762783 9.435049380051904
S 765.3667175013485 612.5261494826524 765.3667175013485 579.6781997891384
s 8.03726428671088 -9.435049380051904 17.472313666762783 -9.435049380051904
S 800.3113448348741 546.8302500956244 800.3113448348741 579.6781997891384
z" fill="none" stroke="none"></path>
<circle cx="0" cy="0" r="6.85301663799793" fill="#ffd391">
  <animateMotion begin="-9.966030087102151s" dur="10s" repeatCount="indefinite">
    <mpath xlink:href="#path23"></mpath>
  </animateMotion>
</circle><path id="path24" d="M 1285.226709684837 265.40404171833364
c 0 33.76776136316625 -8.262324588859826 9.699250604313711 -17.961575193173537 9.699250604313711
S 1249.30355929849 299.1718030814999 1249.30355929849 265.40404171833364
s 8.262324588859826 -9.699250604313711 17.961575193173537 -9.699250604313711
S 1285.226709684837 231.6362803551674 1285.226709684837 265.40404171833364
z" fill="none" stroke="none"></path>
<circle cx="0" cy="0" r="4.931728247013408" fill="#ffd391">
  <animateMotion begin="-7.65579519572179s" dur="10s" repeatCount="indefinite">
    <mpath xlink:href="#path24"></mpath>
  </animateMotion>
</circle><path id="path25" d="M 949.3881344889954 295.6293676253757
c 0 27.576043665939483 -6.747329833155404 7.920778499791128 -14.668108332946533 7.920778499791128
S 920.0519178231024 323.2054112913152 920.0519178231024 295.6293676253757
s 6.747329833155404 -7.920778499791128 14.668108332946533 -7.920778499791128
S 949.3881344889954 268.0533239594362 949.3881344889954 295.6293676253757
z" fill="none" stroke="none"></path>
<circle cx="0" cy="0" r="6.357491971775578" fill="#ff727d">
  <animateMotion begin="-4.885190167352434s" dur="10s" repeatCount="indefinite">
    <mpath xlink:href="#path25"></mpath>
  </animateMotion>
</circle><path id="path26" d="M 1127.1017355615147 917.3330933652869
c 0 33.87662208147501 -8.288960722063035 9.73051910850878 -18.019479830571814 9.73051910850878
S 1091.0627759003712 951.209715446762 1091.0627759003712 917.3330933652869
s 8.288960722063035 -9.73051910850878 18.019479830571814 -9.73051910850878
S 1127.1017355615147 883.4564712838119 1127.1017355615147 917.3330933652869
z" fill="none" stroke="none"></path>
<circle cx="0" cy="0" r="6.3779544570303575" fill="#ff727d">
  <animateMotion begin="-4.935307906675623s" dur="10s" repeatCount="indefinite">
    <mpath xlink:href="#path26"></mpath>
  </animateMotion>
</circle><path id="path27" d="M 116.44718793172319 472.1385121767813
c 0 34.573409499233264 -8.459451260450692 9.930660175311683 -18.390111435762375 9.930660175311683
S 79.66696506019844 506.7119216760146 79.66696506019844 472.1385121767813
s 8.459451260450692 -9.930660175311683 18.390111435762375 -9.930660175311683
S 116.44718793172319 437.56510267754805 116.44718793172319 472.1385121767813
z" fill="none" stroke="none"></path>
<circle cx="0" cy="0" r="6.017249041435568" fill="#fffbd0">
  <animateMotion begin="-2.3132089881265183s" dur="10s" repeatCount="indefinite">
    <mpath xlink:href="#path27"></mpath>
  </animateMotion>
</circle><path id="path28" d="M 1120.3118577549267 547.4161796055246
c 0 24.834988596302107 -6.076646145903706 7.133454171278266 -13.210100317181972 7.133454171278266
S 1093.8916571205627 572.2511682018267 1093.8916571205627 547.4161796055246
s 6.076646145903706 -7.133454171278266 13.210100317181972 -7.133454171278266
S 1120.3118577549267 522.5811910092225 1120.3118577549267 547.4161796055246
z" fill="none" stroke="none"></path>
<circle cx="0" cy="0" r="5.242121165797373" fill="#90ffb5">
  <animateMotion begin="-7.547476950127788s" dur="10s" repeatCount="indefinite">
    <mpath xlink:href="#path28"></mpath>
  </animateMotion>
</circle><path id="path29" d="M 619.8297579352193 714.2289061555224
c 0 32.676102196188694 -7.995216494812126 9.385688928692497 -17.380905423504622 9.385688928692497
S 585.0679470882101 746.9050083517111 585.0679470882101 714.2289061555224
s 7.995216494812126 -9.385688928692497 17.380905423504622 -9.385688928692497
S 619.8297579352193 681.5528039593337 619.8297579352193 714.2289061555224
z" fill="none" stroke="none"></path>
<circle cx="0" cy="0" r="7.2949692050668045" fill="#ff727d">
  <animateMotion begin="-5.72830835959569s" dur="10s" repeatCount="indefinite">
    <mpath xlink:href="#path29"></mpath>
  </animateMotion>
</circle></g>
</svg>