<?xml version="1.0" encoding="utf-8"?>
<svg xmlns="http://www.w3.org/2000/svg" xmlns:xlink="http://www.w3.org/1999/xlink" style="margin: auto; background: none; display: block; z-index: 1; position: relative; shape-rendering: auto;" width="953" height="959" preserveAspectRatio="xMidYMid" viewBox="0 0 953 959">
<g transform="translate(476.5,479.5) scale(1,1) translate(-476.5,-479.5)"><path id="path0" d="M 959.359165438661 105.48732174805065
c 0 23.467139491686044 -5.741959662859351 6.74056134335663 -12.48252100621598 6.74056134335663
S 934.394123426229 128.9544612397367 934.394123426229 105.48732174805065
s 5.741959662859351 -6.74056134335663 12.48252100621598 -6.74056134335663
S 959.359165438661 82.0201822563646 959.359165438661 105.48732174805065
z" fill="none" stroke="none"></path>
<circle cx="0" cy="0" r="4.307562575617964" fill="#ff708e">
  <animateMotion begin="-3.9048034288518707s" dur="10s" repeatCount="indefinite">
    <mpath xlink:href="#path0"></mpath>
  </animateMotion>
</circle><path id="path1" d="M 210.35066714881415 909.2940462253863
c 0 20.55553650465037 -5.029546166031473 5.904249847080425 -10.933796013111898 5.904249847080425
S 188.48307512259035 929.8495827300367 188.48307512259035 909.2940462253863
s 5.029546166031473 -5.904249847080425 10.933796013111898 -5.904249847080425
S 210.35066714881415 888.7385097207359 210.35066714881415 909.2940462253863
z" fill="none" stroke="none"></path>
<circle cx="0" cy="0" r="6.6961432729264745" fill="#de9dd6">
  <animateMotion begin="-3.7914900082879943s" dur="10s" repeatCount="indefinite">
    <mpath xlink:href="#path1"></mpath>
  </animateMotion>
</circle><path id="path2" d="M 380.6795235493771 292.6039046170992
c 0 22.644011130614608 -5.540555914937616 6.504130856665898 -12.044686771603514 6.504130856665898
S 356.5901500061701 315.2479157477138 356.5901500061701 292.6039046170992
s 5.540555914937616 -6.504130856665898 12.044686771603514 -6.504130856665898
S 380.6795235493771 269.9598934864846 380.6795235493771 292.6039046170992
z" fill="none" stroke="none"></path>
<circle cx="0" cy="0" r="6.648830455429478" fill="#ff708e">
  <animateMotion begin="-3.403940763401725s" dur="10s" repeatCount="indefinite">
    <mpath xlink:href="#path2"></mpath>
  </animateMotion>
</circle><path id="path3" d="M 282.60692518207503 7.959109517146144
c 0 22.985688157774856 -5.624157740732145 6.602272130424693 -12.226429871156839 6.602272130424693
S 258.1540654397614 30.944797674921 258.1540654397614 7.959109517146144
s 5.624157740732145 -6.602272130424693 12.226429871156839 -6.602272130424693
S 282.60692518207503 -15.026578640628712 282.60692518207503 7.959109517146144
z" fill="none" stroke="none"></path>
<circle cx="0" cy="0" r="4.108158002511423" fill="#ff708e">
  <animateMotion begin="-3.6930538324998574s" dur="10s" repeatCount="indefinite">
    <mpath xlink:href="#path3"></mpath>
  </animateMotion>
</circle><path id="path4" d="M 488.6466643017322 757.1310252837682
c 0 28.966931423935193 -7.087653433516057 8.320288813257982 -15.407942246774038 8.320288813257982
S 457.8307798081841 786.0979567077034 457.8307798081841 757.1310252837682
s 7.087653433516057 -8.320288813257982 15.407942246774038 -8.320288813257982
S 488.6466643017322 728.164093859833 488.6466643017322 757.1310252837682
z" fill="none" stroke="none"></path>
<circle cx="0" cy="0" r="6.054203219470392" fill="#de9dd6">
  <animateMotion begin="-5.43786197504784s" dur="10s" repeatCount="indefinite">
    <mpath xlink:href="#path4"></mpath>
  </animateMotion>
</circle><path id="path5" d="M 618.2506717299797 145.3901993193451
c 0 22.03237752239287 -5.39090088313868 6.328448862814973 -11.719349745953654 6.328448862814973
S 594.8119722380724 167.42257684173796 594.8119722380724 145.3901993193451
s 5.39090088313868 -6.328448862814973 11.719349745953654 -6.328448862814973
S 618.2506717299797 123.35782179695224 618.2506717299797 145.3901993193451
z" fill="none" stroke="none"></path>
<circle cx="0" cy="0" r="7.511864024407468" fill="#9df871">
  <animateMotion begin="-4.582071245316948s" dur="10s" repeatCount="indefinite">
    <mpath xlink:href="#path5"></mpath>
  </animateMotion>
</circle><path id="path6" d="M 699.1883588280475 181.7428970507287
c 0 18.842956834645108 -4.610510714859973 5.412338665270403 -10.022849380130376 5.412338665270403
S 679.1426600677867 200.5858538853738 679.1426600677867 181.7428970507287
s 4.610510714859973 -5.412338665270403 10.022849380130376 -5.412338665270403
S 699.1883588280475 162.89994021608356 699.1883588280475 181.7428970507287
z" fill="none" stroke="none"></path>
<circle cx="0" cy="0" r="4.736044526333131" fill="#9df871">
  <animateMotion begin="-0.9355706068268455s" dur="10s" repeatCount="indefinite">
    <mpath xlink:href="#path6"></mpath>
  </animateMotion>
</circle><path id="path7" d="M 454.2512765761139 437.79243480149916
c 0 26.454501899438636 -6.472910039224346 7.598633524306842 -14.071543563531188 7.598633524306842
S 426.10818944905157 464.2469367009378 426.10818944905157 437.79243480149916
s 6.472910039224346 -7.598633524306842 14.071543563531188 -7.598633524306842
S 454.2512765761139 411.3379329020605 454.2512765761139 437.79243480149916
z" fill="none" stroke="none"></path>
<circle cx="0" cy="0" r="4.012546726006204" fill="#de9dd6">
  <animateMotion begin="-5.451211376961038s" dur="10s" repeatCount="indefinite">
    <mpath xlink:href="#path7"></mpath>
  </animateMotion>
</circle><path id="path8" d="M 271.317310940629 354.1777033007522
c 0 37.48257413903402 -9.17126814040194 10.766271295254453 -19.937539435656394 10.766271295254453
S 231.44223206931622 391.6602774397862 231.44223206931622 354.1777033007522
s 9.17126814040194 -10.766271295254453 19.937539435656394 -10.766271295254453
S 271.317310940629 316.6951291617182 271.317310940629 354.1777033007522
z" fill="none" stroke="none"></path>
<circle cx="0" cy="0" r="7.691238488614843" fill="#9df871">
  <animateMotion begin="-9.233089614812958s" dur="10s" repeatCount="indefinite">
    <mpath xlink:href="#path8"></mpath>
  </animateMotion>
</circle><path id="path9" d="M 69.053795946528 480.3240911156039
c 0 19.96730740119758 -4.885617768378131 5.735290423748242 -10.620908192126372 5.735290423748242
S 47.81197956227526 500.29139851680145 47.81197956227526 480.3240911156039
s 4.885617768378131 -5.735290423748242 10.620908192126372 -5.735290423748242
S 69.053795946528 460.35678371440633 69.053795946528 480.3240911156039
z" fill="none" stroke="none"></path>
<circle cx="0" cy="0" r="4.090092983858652" fill="#e0ff77">
  <animateMotion begin="-8.882645880305748s" dur="10s" repeatCount="indefinite">
    <mpath xlink:href="#path9"></mpath>
  </animateMotion>
</circle><path id="path10" d="M 741.464255520298 134.09580477926448
c 0 31.229337666254803 -7.641220918338941 8.970128904137018 -16.611349822475958 8.970128904137018
S 708.2415558753461 165.32514244551928 708.2415558753461 134.09580477926448
s 7.641220918338941 -8.970128904137018 16.611349822475958 -8.970128904137018
S 741.464255520298 102.86646711300968 741.464255520298 134.09580477926448
z" fill="none" stroke="none"></path>
<circle cx="0" cy="0" r="4.3772008152591635" fill="#ff708e">
  <animateMotion begin="-4.82037258687297s" dur="10s" repeatCount="indefinite">
    <mpath xlink:href="#path10"></mpath>
  </animateMotion>
</circle><path id="path11" d="M 330.2036763478454 853.6503785595975
c 0 33.82942322505393 -8.277412065704684 9.716961990175065 -17.99437405587975 9.716961990175065
S 294.2149282360859 887.4798017846514 294.2149282360859 853.6503785595975
s 8.277412065704684 -9.716961990175065 17.99437405587975 -9.716961990175065
S 330.2036763478454 819.8209553345436 330.2036763478454 853.6503785595975
z" fill="none" stroke="none"></path>
<circle cx="0" cy="0" r="6.449993053140775" fill="#de9dd6">
  <animateMotion begin="-0.45102088693659503s" dur="10s" repeatCount="indefinite">
    <mpath xlink:href="#path11"></mpath>
  </animateMotion>
</circle><path id="path12" d="M 37.76524779254818 560.627574063402
c 0 33.278819755674434 -8.142689940218212 9.558809929821381 -17.70149987003959 9.558809929821381
S 2.3622480524689955 593.9063938190765 2.3622480524689955 560.627574063402
s 8.142689940218212 -9.558809929821381 17.70149987003959 -9.558809929821381
S 37.76524779254818 527.3487543077275 37.76524779254818 560.627574063402
z" fill="none" stroke="none"></path>
<circle cx="0" cy="0" r="6.736786664854006" fill="#51cacc">
  <animateMotion begin="-6.971810032495506s" dur="10s" repeatCount="indefinite">
    <mpath xlink:href="#path12"></mpath>
  </animateMotion>
</circle><path id="path13" d="M 670.6583706452562 142.29256073836083
c 0 33.904322653962005 -8.295738521714107 9.738475655925258 -18.034214177639363 9.738475655925258
S 634.5899422899776 176.19688339232283 634.5899422899776 142.29256073836083
s 8.295738521714107 -9.738475655925258 18.034214177639363 -9.738475655925258
S 670.6583706452562 108.38823808439884 670.6583706452562 142.29256073836083
z" fill="none" stroke="none"></path>
<circle cx="0" cy="0" r="4.872556601101955" fill="#9df871">
  <animateMotion begin="-8.424358802914899s" dur="10s" repeatCount="indefinite">
    <mpath xlink:href="#path13"></mpath>
  </animateMotion>
</circle><path id="path14" d="M 716.305335481824 946.9387148323743
c 0 20.872354307570216 -5.107065415682073 5.995250705365913 -11.102316121047986 5.995250705365913
S 694.100703239728 967.8110691399445 694.100703239728 946.9387148323743
s 5.107065415682073 -5.995250705365913 11.102316121047986 -5.995250705365913
S 716.305335481824 926.0663605248042 716.305335481824 946.9387148323743
z" fill="none" stroke="none"></path>
<circle cx="0" cy="0" r="6.194116620087488" fill="#e0ff77">
  <animateMotion begin="-6.818867841636209s" dur="10s" repeatCount="indefinite">
    <mpath xlink:href="#path14"></mpath>
  </animateMotion>
</circle><path id="path15" d="M 645.220457272015 698.476424980094
c 0 23.100719920767567 -5.652303810400574 6.63531316873111 -12.287616979131684 6.63531316873111
S 620.6452233137516 721.5771449008615 620.6452233137516 698.476424980094
s 5.652303810400574 -6.63531316873111 12.287616979131684 -6.63531316873111
S 645.220457272015 675.3757050593264 645.220457272015 698.476424980094
z" fill="none" stroke="none"></path>
<circle cx="0" cy="0" r="6.179466690058843" fill="#e0ff77">
  <animateMotion begin="-5.3191406724883805s" dur="10s" repeatCount="indefinite">
    <mpath xlink:href="#path15"></mpath>
  </animateMotion>
</circle><path id="path16" d="M 397.0049100049946 765.6010499796976
c 0 24.8320410743277 -6.07592494371848 7.132607542626042 -13.208532486344522 7.132607542626042
S 370.5878450323056 790.4330910540252 370.5878450323056 765.6010499796976
s 6.07592494371848 -7.132607542626042 13.208532486344522 -7.132607542626042
S 397.0049100049946 740.7690089053699 397.0049100049946 765.6010499796976
z" fill="none" stroke="none"></path>
<circle cx="0" cy="0" r="4.257692660870433" fill="#ff708e">
  <animateMotion begin="-6.398615874866502s" dur="10s" repeatCount="indefinite">
    <mpath xlink:href="#path16"></mpath>
  </animateMotion>
</circle><path id="path17" d="M 604.9680018237369 601.5295846377312
c 0 23.805710985555137 -5.824801624125192 6.837810602233923 -12.662612226359116 6.837810602233923
S 579.6427773710187 625.3352956232864 579.6427773710187 601.5295846377312
s 5.824801624125192 -6.837810602233923 12.662612226359116 -6.837810602233923
S 604.9680018237369 577.723873652176 604.9680018237369 601.5295846377312
z" fill="none" stroke="none"></path>
<circle cx="0" cy="0" r="5.313380642054001" fill="#e0ff77">
  <animateMotion begin="-1.9833911082865585s" dur="10s" repeatCount="indefinite">
    <mpath xlink:href="#path17"></mpath>
  </animateMotion>
</circle><path id="path18" d="M 465.1607887182997 222.06694178748074
c 0 32.533951493872 -7.960434939989958 9.3448584078143 -17.30529334780426 9.3448584078143
S 430.5502020226912 254.60089328135274 430.5502020226912 222.06694178748074
s 7.960434939989958 -9.3448584078143 17.30529334780426 -9.3448584078143
S 465.1607887182997 189.53299029360875 465.1607887182997 222.06694178748074
z" fill="none" stroke="none"></path>
<circle cx="0" cy="0" r="6.165618773390494" fill="#9df871">
  <animateMotion begin="-8.877172028141771s" dur="10s" repeatCount="indefinite">
    <mpath xlink:href="#path18"></mpath>
  </animateMotion>
</circle><path id="path19" d="M 882.7342632383431 678.4609401360974
c 0 24.191821071285613 -5.919275368506054 6.9487145630288465 -12.8679899315349 6.9487145630288465
S 856.9982833752733 702.652761207383 856.9982833752733 678.4609401360974
s 5.919275368506054 -6.9487145630288465 12.8679899315349 -6.9487145630288465
S 882.7342632383431 654.2691190648118 882.7342632383431 678.4609401360974
z" fill="none" stroke="none"></path>
<circle cx="0" cy="0" r="7.289382474665926" fill="#e0ff77">
  <animateMotion begin="-4.798224142081519s" dur="10s" repeatCount="indefinite">
    <mpath xlink:href="#path19"></mpath>
  </animateMotion>
</circle><path id="path20" d="M 830.5216529823261 877.1907723938457
c 0 31.062337731659554 -7.60035923221457 8.922160837817106 -16.522520070031675 8.922160837817106
S 797.4766128422629 908.2531101255053 797.4766128422629 877.1907723938457
s 7.60035923221457 -8.922160837817106 16.522520070031675 -8.922160837817106
S 830.5216529823261 846.1284346621861 830.5216529823261 877.1907723938457
z" fill="none" stroke="none"></path>
<circle cx="0" cy="0" r="5.7385712892148035" fill="#51cacc">
  <animateMotion begin="-7.903285002766922s" dur="10s" repeatCount="indefinite">
    <mpath xlink:href="#path20"></mpath>
  </animateMotion>
</circle><path id="path21" d="M 377.15521423381756 120.0347531706142
c 0 19.72384797178193 -4.826047907989195 5.66536058763949 -10.491408495628685 5.66536058763949
S 356.17239724256024 139.75860114239612 356.17239724256024 120.0347531706142
s 4.826047907989195 -5.66536058763949 10.491408495628685 -5.66536058763949
S 377.15521423381756 100.31090519883227 377.15521423381756 120.0347531706142
z" fill="none" stroke="none"></path>
<circle cx="0" cy="0" r="6.53633978855027" fill="#9df871">
  <animateMotion begin="-4.0016914663208825s" dur="10s" repeatCount="indefinite">
    <mpath xlink:href="#path21"></mpath>
  </animateMotion>
</circle><path id="path22" d="M 77.73411537221425 627.4355693333492
c 0 34.371789905732605 -8.410118806721806 9.872748164412558 -18.282866971134364 9.872748164412558
S 41.16838142994551 661.8073592390818 41.16838142994551 627.4355693333492
s 8.410118806721806 -9.872748164412558 18.282866971134364 -9.872748164412558
S 77.73411537221425 593.0637794276166 77.73411537221425 627.4355693333492
z" fill="none" stroke="none"></path>
<circle cx="0" cy="0" r="4.308595730601727" fill="#e0ff77">
  <animateMotion begin="-3.09788811205963s" dur="10s" repeatCount="indefinite">
    <mpath xlink:href="#path22"></mpath>
  </animateMotion>
</circle><path id="path23" d="M 299.4455834443822 539.0817768410733
c 0 30.662847338485598 -7.502611582820943 8.807413597224587 -16.310025180045532 8.807413597224587
S 266.82553308429107 569.7446241795589 266.82553308429107 539.0817768410733
s 7.502611582820943 -8.807413597224587 16.310025180045532 -8.807413597224587
S 299.4455834443822 508.4189295025877 299.4455834443822 539.0817768410733
z" fill="none" stroke="none"></path>
<circle cx="0" cy="0" r="4.687811464570192" fill="#e0ff77">
  <animateMotion begin="-9.388855900030196s" dur="10s" repeatCount="indefinite">
    <mpath xlink:href="#path23"></mpath>
  </animateMotion>
</circle><path id="path24" d="M 266.45492968744145 690.2080304648821
c 0 32.79633004124091 -8.024633946261071 9.420222458654303 -17.444856404915374 9.420222458654303
S 231.5652168776107 723.004360506123 231.5652168776107 690.2080304648821
s 8.024633946261071 -9.420222458654303 17.444856404915374 -9.420222458654303
S 266.45492968744145 657.4117004236412 266.45492968744145 690.2080304648821
z" fill="none" stroke="none"></path>
<circle cx="0" cy="0" r="6.937363413903706" fill="#9df871">
  <animateMotion begin="-8.11659957818648s" dur="10s" repeatCount="indefinite">
    <mpath xlink:href="#path24"></mpath>
  </animateMotion>
</circle><path id="path25" d="M 613.7818346528277 502.46809569883686
c 0 18.923479055814575 -4.630212960465268 5.435467388372272 -10.06568034883754 5.435467388372272
S 593.6504739551526 521.3915747546514 593.6504739551526 502.46809569883686
s 4.630212960465268 -5.435467388372272 10.06568034883754 -5.435467388372272
S 613.7818346528277 483.54461664302227 613.7818346528277 502.46809569883686
z" fill="none" stroke="none"></path>
<circle cx="0" cy="0" r="4.858478445747998" fill="#9df871">
  <animateMotion begin="-9.99500257618008s" dur="10s" repeatCount="indefinite">
    <mpath xlink:href="#path25"></mpath>
  </animateMotion>
</circle><path id="path26" d="M 20.357494712047952 324.8043934346506
c 0 24.44593393215 -5.981451919568617 7.021704427319682 -13.003156346888298 7.021704427319682
S -5.648817981728643 349.2503273668006 -5.648817981728643 324.8043934346506
s 5.981451919568617 -7.021704427319682 13.003156346888298 -7.021704427319682
S 20.357494712047952 300.3584595025006 20.357494712047952 324.8043934346506
z" fill="none" stroke="none"></path>
<circle cx="0" cy="0" r="6.530143718596912" fill="#de9dd6">
  <animateMotion begin="-8.69641248478577s" dur="10s" repeatCount="indefinite">
    <mpath xlink:href="#path26"></mpath>
  </animateMotion>
</circle><path id="path27" d="M 943.4941772342795 539.5713228642159
c 0 19.40347583796316 -4.747658981629283 5.573338804521333 -10.320997786150617 5.573338804521333
S 922.8521816619782 558.974798702179 922.8521816619782 539.5713228642159
s 4.747658981629283 -5.573338804521333 10.320997786150617 -5.573338804521333
S 943.4941772342795 520.1678470262527 943.4941772342795 539.5713228642159
z" fill="none" stroke="none"></path>
<circle cx="0" cy="0" r="4.601788451142613" fill="#51cacc">
  <animateMotion begin="-4.698046537433546s" dur="10s" repeatCount="indefinite">
    <mpath xlink:href="#path27"></mpath>
  </animateMotion>
</circle><path id="path28" d="M 462.7167742924075 793.0934945918561
c 0 33.48888635140382 -8.194089213641359 9.61914820731812 -17.813237420959478 9.61914820731812
S 427.09029945048854 826.58238094326 427.09029945048854 793.0934945918561
s 8.194089213641359 -9.61914820731812 17.813237420959478 -9.61914820731812
S 462.7167742924075 759.6046082404523 462.7167742924075 793.0934945918561
z" fill="none" stroke="none"></path>
<circle cx="0" cy="0" r="5.448216112829453" fill="#ff708e">
  <animateMotion begin="-7.374971057476949s" dur="10s" repeatCount="indefinite">
    <mpath xlink:href="#path28"></mpath>
  </animateMotion>
</circle><path id="path29" d="M 740.6674650560127 893.1603536731785
c 0 22.31271785443017 -5.459494794169084 6.408972149676751 -11.868466943845835 6.408972149676751
S 716.930531168321 915.4730715276087 716.930531168321 893.1603536731785
s 5.459494794169084 -6.408972149676751 11.868466943845835 -6.408972149676751
S 740.6674650560127 870.8476358187484 740.6674650560127 893.1603536731785
z" fill="none" stroke="none"></path>
<circle cx="0" cy="0" r="6.169400993575687" fill="#9df871">
  <animateMotion begin="-8.117391936150256s" dur="10s" repeatCount="indefinite">
    <mpath xlink:href="#path29"></mpath>
  </animateMotion>
</circle></g>
</svg>